<svg width="30" height="30" viewBox="0 0 30 30" fill="none" xmlns="http://www.w3.org/2000/svg">
<path d="M23.4123 10.0979L23.4123 10.0979C23.3859 10.111 23.3596 10.1241 23.3333 10.1372C23.0579 10.2741 22.7819 10.4113 22.5081 10.5501C22.4934 10.5576 22.4787 10.565 22.464 10.5725C22.3147 10.6481 22.1688 10.722 22.0271 10.8044C21.8699 10.8957 21.7202 10.9926 21.581 11.104C21.5227 11.1508 21.4661 11.1994 21.4081 11.2493C21.3954 11.2602 21.3828 11.2711 21.37 11.282C21.3276 11.3183 21.2843 11.3551 21.2397 11.3911C21.2939 11.3712 21.348 11.353 21.4013 11.3353C21.4164 11.3303 21.4314 11.3253 21.4463 11.3204L23.4123 10.0979ZM23.4123 10.0979C23.705 9.95231 23.9976 9.80718 24.2904 9.66225M23.4123 10.0979L24.2904 9.66225M24.2904 9.66225C24.0158 9.83874 23.7411 10.0151 23.466 10.1914C23.4113 10.2265 23.3565 10.2616 23.3017 10.2967C23.0986 10.4269 22.8955 10.5572 22.692 10.686C22.6676 10.7015 22.6433 10.7169 22.6191 10.7322C22.4625 10.8317 22.3089 10.9291 22.1495 11.0173C21.9906 11.1052 21.8296 11.1839 21.6623 11.2462L24.2904 9.66225Z" fill="url(#paint0_angular_15_11)" stroke="#438267" stroke-width="0.2"/>
<path d="M0.1597 14.9301C0.1597 6.78598 6.78053 0.183366 14.9484 0.183366C23.1162 0.183366 29.737 6.78598 29.737 14.9301C29.737 18.0505 28.7652 20.9443 27.1069 23.3273C24.4366 27.1645 19.9868 29.6769 14.9484 29.6769C6.78053 29.6769 0.1597 23.0743 0.1597 14.9301Z" fill="url(#paint1_angular_15_11)" stroke="#438267" stroke-width="0.2"/>
<path d="M0.452882 18.5961L0.452705 18.5962L0.452882 18.5961ZM0.0174237 14.9305L0.0174241 14.9305L0.0174237 14.9305ZM7.51273 2.12873L7.50805 2.1205L7.51273 2.12873ZM22.2502 1.99937L22.2015 2.0851L22.2502 1.99937C21.4685 1.55604 20.6465 1.18433 19.7977 0.889324C20.1174 0.997694 20.4334 1.11702 20.745 1.24717C22.219 1.86277 23.5927 2.71714 24.7954 3.76627C26.1762 4.97079 27.3332 6.42779 28.1885 8.04613L28.2769 7.9994L28.1885 8.04613C28.872 9.33921 29.3605 10.7347 29.6355 12.1705C30.2043 15.1402 29.8511 18.2652 28.6204 21.0287C27.9446 22.5463 27.0124 23.9482 25.876 25.1621C24.7963 26.3153 23.5336 27.2981 22.1482 28.0599C20.8236 28.7883 19.389 29.3131 17.9059 29.6102C15.7777 30.0366 13.5497 29.9928 11.4413 29.4768C10.4894 29.2438 9.56049 28.9138 8.67391 28.4965L8.63132 28.587L8.6739 28.4965C8.32812 28.3337 7.99069 28.1555 7.65708 27.967C7.11742 27.6621 6.59821 27.3181 6.10292 26.9449C4.87265 26.018 3.79036 24.9007 2.89745 23.6495C4.74135 26.1261 7.37575 27.999 10.3213 28.9377C12.2123 29.5404 14.2142 29.7679 16.1931 29.602C17.9903 29.4514 19.7578 28.974 21.3832 28.1939L21.3399 28.1037L21.3832 28.1939C22.8342 27.4974 24.1681 26.5622 25.3189 25.4392C26.3276 24.455 27.1962 23.3287 27.8868 22.101C28.5194 20.9763 29.004 19.7689 29.3211 18.5185C30.1257 15.3471 29.8489 11.9455 28.5325 8.94761C27.2537 6.03538 25.0206 3.57062 22.2502 1.99937Z" fill="url(#paint2_angular_15_11)" stroke="#438267" stroke-width="0.2"/>
<path d="M11.6782 14.9301C11.6782 13.1296 13.142 11.6694 14.9484 11.6694C16.7547 11.6694 18.2185 13.1296 18.2185 14.9301C18.2185 16.7307 16.7547 18.1908 14.9484 18.1908C13.142 18.1908 11.6782 16.7307 11.6782 14.9301Z" fill="url(#paint3_angular_15_11)" stroke="#438267" stroke-width="0.2"/>
<path d="M16.0524 11.7543C16.1901 11.804 16.3252 11.8631 16.4564 11.9316L16.0524 11.7543ZM16.0524 11.7543C16.1581 11.7889 16.2621 11.8288 16.3639 11.8738L16.3639 11.8738L16.0524 11.7543ZM11.5225 14.9721C11.5227 14.973 11.5228 14.9737 11.523 14.9744C11.5238 14.9782 11.5238 14.9785 11.5215 14.9885C11.5183 15.0022 11.5194 15.017 11.5205 15.0315C11.5209 15.0372 11.5213 15.0428 11.5215 15.0483C11.5219 15.0603 11.5225 15.0717 11.5232 15.0833C11.5236 15.0905 11.5241 15.0978 11.5244 15.1053C11.5259 15.1359 11.5285 15.1669 11.5311 15.1976C11.5318 15.2058 11.5325 15.214 11.5332 15.2221M11.5225 14.9721L15.2433 11.4947C15.6434 11.5227 16.0374 11.6202 16.4043 11.7823C16.7113 11.9179 16.9982 12.0992 17.2535 12.3166M11.5225 14.9721L11.5365 14.9727L11.5225 14.9721ZM11.5332 15.2221C11.5505 15.431 11.5836 15.638 11.6357 15.8411C11.8667 16.7423 12.4545 17.5621 13.2565 18.0428C13.5226 18.2024 13.8112 18.3248 14.1115 18.4034C14.3844 18.4749 14.6669 18.5098 14.949 18.5115C15.3498 18.5138 15.7501 18.4475 16.1276 18.3129C16.9977 18.0029 17.7257 17.3482 18.1291 16.52C18.6474 15.456 18.5906 14.1773 17.9768 13.1649C17.7836 12.8463 17.5375 12.5585 17.2535 12.3166M11.5332 15.2221L11.5496 15.2207L11.6647 15.8337C11.6647 15.8337 11.6647 15.8337 11.6647 15.8337C11.617 15.6707 11.5821 15.5037 11.5613 15.3351L11.5613 15.335C11.5566 15.2969 11.5528 15.2587 11.5496 15.2207L11.5332 15.2221ZM17.2535 12.3166L17.1887 12.3928M17.2535 12.3166L17.1887 12.3928L17.1887 12.3928M17.1887 12.3928C17.4647 12.6278 17.7037 12.9074 17.8913 13.2168L17.8913 13.2168C18.4875 14.2 18.5427 15.4426 18.0392 16.4762L18.0392 16.4762C17.6472 17.281 16.9394 17.9175 16.0941 18.2187L16.1246 18.3043L16.0941 18.2187C15.7277 18.3493 15.339 18.4138 14.9496 18.4115C14.6753 18.4098 14.4012 18.3759 14.1368 18.3067L14.1368 18.3067C13.8459 18.2305 13.5661 18.1118 13.3079 17.957C12.8565 17.6864 12.4743 17.3045 12.1891 16.8604C12.6345 17.4324 13.2724 17.8408 13.9805 18.0398C15.1305 18.363 16.3944 18.0722 17.2573 17.2357L17.1877 17.1639L17.2573 17.2357C17.4576 17.0414 17.6347 16.8209 17.7797 16.5821L17.1887 12.3928ZM11.6243 15.1004C11.6243 15.1004 11.6243 15.1004 11.6243 15.1005L11.6243 15.1006C11.6257 15.1291 11.6281 15.1577 11.6307 15.1881C11.6314 15.1965 11.6321 15.2051 11.6329 15.2138L11.6243 15.1004ZM11.6243 15.1004L11.6414 15.0994L11.6243 15.1004L11.6243 15.1004ZM11.5786 14.8146L11.5815 14.8147L11.5786 14.8146ZM11.5372 15.0478L11.5215 15.0483L11.5372 15.0479L11.5372 15.0478Z" fill="url(#paint4_angular_15_11)" stroke="#438267" stroke-width="0.2"/>
<path d="M10.1871 14.9301C10.1871 12.3012 12.3244 10.1694 14.9615 10.1694C17.5986 10.1694 19.7359 12.3012 19.7359 14.9301C19.7359 16.0268 19.3642 17.0366 18.7394 17.8415C18.1128 18.6487 17.2317 19.2496 16.2165 19.5247C15.8167 19.633 15.3959 19.6908 14.9615 19.6908C12.3244 19.6908 10.1871 17.5591 10.1871 14.9301Z" fill="url(#paint5_angular_15_11)" stroke="#438267" stroke-width="0.2"/>
<path d="M10.0296 15.0147C10.0267 15.0331 10.0285 15.052 10.0303 15.0708C10.0312 15.0804 10.0322 15.0899 10.0325 15.0994C10.0327 15.1061 10.0329 15.1127 10.0331 15.1192C10.0337 15.1404 10.0343 15.1613 10.0354 15.1826C10.0394 15.2661 10.0461 15.3492 10.0544 15.4323L10.0296 15.0147ZM10.0296 15.0147C10.0311 15.0048 10.0317 15.0015 10.0317 14.9983C10.0317 14.9942 10.0309 14.99 10.0303 14.9722L10.046 14.9724C10.0463 14.9903 10.0465 15.0051 10.0467 15.0174C10.0467 15.0174 10.0467 15.0174 10.0467 15.0174C10.0472 15.0453 10.0474 15.0604 10.0475 15.0699C10.0477 15.0837 10.0477 15.0858 10.0482 15.0988L10.1324 15.0956M10.0296 15.0147L10.1324 15.0962C10.1324 15.096 10.1324 15.0958 10.1324 15.0956M10.1324 15.0956C10.1324 15.0956 10.1324 15.0956 10.1324 15.0956L10.1481 15.095L10.1324 15.0956ZM16.5267 10.3258C16.984 10.486 17.4167 10.7148 17.8063 11.0025L17.7469 11.0829L17.8063 11.0025C18.2017 11.2944 18.5518 11.6454 18.8422 12.0414L18.7616 12.1005L18.8422 12.0414C19.1342 12.4396 19.3649 12.8827 19.5225 13.3505L19.4326 13.3808L19.5225 13.3505C19.7085 13.9028 19.7917 14.4864 19.7693 15.0682C19.7487 15.6 19.6375 16.1296 19.4433 16.6251L19.4433 16.6251C19.2715 17.0634 19.0344 17.4759 18.7419 17.845L18.6704 17.7884L18.7419 17.845C18.4778 18.1781 18.1691 18.4766 17.8268 18.7291M16.5267 10.3258L10.1353 15.1778C10.1392 15.2591 10.1458 15.3405 10.1539 15.4224L10.1539 15.4224C10.1567 15.4497 10.1596 15.4771 10.1628 15.5044C10.1966 15.7963 10.2554 16.0859 10.3391 16.3674C10.3466 16.3923 10.3542 16.4172 10.362 16.442C10.5063 16.9003 10.7162 17.3365 10.9814 17.735M16.5267 10.3258C16.5393 10.3299 16.5518 10.334 16.5644 10.3382C17.038 10.497 17.4854 10.7279 17.8886 11.0221C18.2894 11.3146 18.6451 11.6683 18.9404 12.0667C19.8918 13.3503 20.1523 15.0436 19.6419 16.5552C19.0853 18.2037 17.6659 19.4639 15.9567 19.8151L15.9745 19.9018L15.9567 19.8151C15.4641 19.9163 14.9518 19.939 14.4519 19.8837C14.0143 19.8353 13.5838 19.7279 13.1774 19.5607L13.1397 19.6521L13.1774 19.5607C12.2768 19.1902 11.5166 18.5392 10.9814 17.735M16.5267 10.3258L10.0796 15.5146C10.1159 15.8108 10.1815 16.1033 10.2739 16.3868C10.2822 16.4125 10.2908 16.438 10.2996 16.4635C10.4593 16.927 10.6916 17.354 10.9814 17.735M17.8268 18.7291L17.7674 18.6487L17.8268 18.7291C17.8268 18.7291 17.8268 18.7291 17.8268 18.7291ZM17.8268 18.7291C16.4923 19.714 14.7231 19.9281 13.1762 19.3512C12.3026 19.0255 11.5364 18.4645 10.9814 17.735M10.0702 15.4307C10.0731 15.4587 10.0762 15.4867 10.0796 15.5145L10.0512 15.1819L10.0362 15.1826L10.0512 15.1819C10.0512 15.1819 10.0512 15.182 10.0512 15.1821L10.1024 15.1794L10.1026 15.1794L10.0512 15.1821C10.0556 15.2645 10.0617 15.3478 10.0702 15.4307ZM10.1072 15.1791L10.107 15.1791L10.1072 15.1791Z" fill="url(#paint6_angular_15_11)" stroke="#438267" stroke-width="0.2"/>
<path d="M9.30288 17.5561L10.4844 16.8807L10.8188 17.4624L9.63725 18.1378L9.30288 17.5561Z" fill="url(#paint7_angular_15_11)" stroke="#438267" stroke-width="0.2"/>
<path d="M10.1153 16.9764C10.0485 16.9989 9.98148 17.0186 9.91662 17.0377C9.8883 17.046 9.86038 17.0542 9.83308 17.0624L10.1153 16.9764ZM10.1153 16.9764C10.0655 17.0196 10.0183 17.0641 9.97261 17.1071C9.96817 17.1112 9.96375 17.1154 9.95935 17.1195C9.87935 17.1948 9.80357 17.265 9.72049 17.3253L10.1153 16.9764ZM9.82595 18.0947C10.0228 17.9986 10.2202 17.9028 10.4175 17.8071M9.82595 18.0947L10.4175 17.8071M9.82595 18.0947L9.77148 18.1211M9.82595 18.0947L9.77148 18.1211M10.4175 17.8071C10.4068 17.8143 10.396 17.8215 10.3852 17.8286C10.3088 17.8797 10.2326 17.9305 10.1559 17.9813L10.1558 17.9813C10.1308 17.9979 10.1064 18.0142 10.082 18.0304C10.0526 18.05 10.0234 18.0695 9.99342 18.0893C9.97387 18.1023 9.95409 18.1151 9.93387 18.1282L9.93268 18.129L10.4175 17.8071ZM9.23222 17.3413L9.23222 17.3413C9.20986 17.3549 9.18866 17.3684 9.16624 17.3827C9.15728 17.3884 9.14812 17.3942 9.13861 17.4002L9.13638 17.3967C9.13385 17.3998 9.1312 17.403 9.12847 17.4061M9.23222 17.3413L9.10443 17.6365C9.10218 17.6332 9.09996 17.63 9.09787 17.6269C9.08925 17.6143 9.08079 17.6016 9.07325 17.5893C9.06556 17.5767 9.06002 17.5664 9.05662 17.5585C9.0557 17.5564 9.0551 17.5549 9.05471 17.5538C9.0544 17.5444 9.05377 17.5355 9.05328 17.5284L9.05319 17.5272C9.05253 17.5178 9.05212 17.5114 9.05203 17.5057C9.05194 17.5 9.05225 17.497 9.05241 17.4959C9.0569 17.4865 9.06501 17.4753 9.08034 17.4584C9.08373 17.4547 9.08825 17.4499 9.0934 17.4445C9.10381 17.4334 9.11683 17.4196 9.12847 17.4061M9.23222 17.3413C9.30513 17.2971 9.37869 17.2548 9.45331 17.2161L9.23222 17.3413ZM9.12847 17.4061L9.12642 17.4072L9.12135 17.41C9.12114 17.4101 9.12104 17.4102 9.12104 17.4102C9.12105 17.4102 9.12216 17.4095 9.12383 17.4083C9.12501 17.4075 9.12693 17.406 9.12925 17.4039C9.1311 17.4023 9.1336 17.3999 9.13636 17.3967L9.13143 17.3889L9.13126 17.3886L9.08517 17.3157L9.13228 17.3894L9.13246 17.3897L9.13668 17.3963C9.1372 17.3957 9.13774 17.395 9.13828 17.3944C9.13775 17.395 9.13723 17.3957 9.13669 17.3963L9.13902 17.4C9.13607 17.4018 9.13341 17.4034 9.1315 17.4045L9.12847 17.4061ZM9.09834 17.8092L9.1821 17.7546C9.17637 17.7458 9.1705 17.7373 9.1655 17.7301L9.16518 17.7296C9.15985 17.7219 9.15544 17.7156 9.15136 17.7093C9.14726 17.703 9.14312 17.6963 9.13816 17.6882L9.13787 17.6877C9.13324 17.6802 9.12782 17.6714 9.12213 17.6627L9.24035 17.8446C9.22895 17.8273 9.21969 17.8129 9.21007 17.7979C9.20156 17.7846 9.19278 17.7709 9.182 17.7544L9.09834 17.8092ZM9.09834 17.8092C9.09337 17.8016 9.08817 17.7941 9.08297 17.7866C9.07777 17.7791 9.07257 17.7715 9.0676 17.7639C9.06264 17.7563 9.0578 17.7484 9.05296 17.7406C9.04812 17.7327 9.04329 17.7248 9.03832 17.7172L9.30129 18.1172C9.28338 18.0905 9.26547 18.0639 9.2477 18.037L9.1569 17.8997C9.14606 17.8833 9.13563 17.867 9.12517 17.8507C9.11632 17.8369 9.10746 17.8231 9.09834 17.8092ZM9.62797 18.191L9.584 18.1014C9.57843 18.0901 9.57335 18.0789 9.56899 18.0692L9.56874 18.0687C9.56411 18.0584 9.56023 18.0499 9.55617 18.0416L9.62797 18.191ZM9.62797 18.191L9.71765 18.1472M9.62797 18.191L9.71765 18.1472M9.71765 18.1472L9.77148 18.1211M9.71765 18.1472L9.77148 18.1211M10.3749 16.8698C10.3749 16.8698 10.375 16.8698 10.375 16.8697L10.3433 16.8047L10.3749 16.8698ZM9.38738 17.7022C9.44402 17.8153 9.50068 17.9285 9.55617 18.0416L9.72048 17.3253C9.62186 17.3968 9.51752 17.462 9.41001 17.5217L9.41 17.5217L9.40874 17.5224C9.40604 17.524 9.40377 17.5254 9.40205 17.5266L9.32146 17.5704L9.3647 17.6568C9.37226 17.6719 9.37982 17.687 9.38738 17.7022ZM9.39751 17.5298C9.39737 17.5299 9.3974 17.5298 9.39757 17.5297L9.39751 17.5298ZM10.9467 17.3873C10.9458 17.3854 10.9448 17.3835 10.9438 17.3814L10.9343 17.3621C10.9383 17.3682 10.9422 17.3742 10.9461 17.3799C10.95 17.3858 10.9549 17.3925 10.9601 17.3996C10.9792 17.4258 11.0034 17.459 11.0061 17.4866C11.0068 17.4931 11.0063 17.4995 11.0049 17.5058L10.9961 17.4875L10.9672 17.4282C10.9634 17.4204 10.9597 17.413 10.9563 17.4065L10.9562 17.4062L10.9467 17.3873L10.9467 17.3873ZM9.33112 17.9818L9.24037 17.8446L9.78987 18.2237C9.77026 18.2366 9.75357 18.2485 9.73826 18.2594C9.71011 18.2794 9.68662 18.2961 9.65822 18.3103C9.62111 18.3288 9.59801 18.3302 9.57687 18.3219L9.57687 18.3219C9.56499 18.3173 9.55228 18.3079 9.53614 18.2879C9.52352 18.2723 9.51355 18.2568 9.50095 18.2373C9.49525 18.2284 9.48902 18.2187 9.48176 18.2078L9.45189 18.1628L9.42175 18.1173L9.42171 18.1173C9.40887 18.098 9.39633 18.0793 9.38391 18.0608C9.36625 18.0345 9.34883 18.0086 9.33112 17.9818ZM9.82938 18.1972L9.78987 18.2237L9.87037 18.1697C9.85642 18.1789 9.84278 18.1881 9.82956 18.197L9.82938 18.1972ZM9.05486 17.559L9.05486 17.559L9.05486 17.559ZM9.45331 17.2161C9.57453 17.1533 9.70175 17.1023 9.83305 17.0625L9.45331 17.2161Z" fill="url(#paint8_angular_15_11)" stroke="#438267" stroke-width="0.2"/>
<path d="M19.4133 16.9644L20.5938 17.6418L20.2584 18.2229L19.078 17.5455L19.4133 16.9644Z" fill="url(#paint9_angular_15_11)" stroke="#438267" stroke-width="0.2"/>
<path d="M19.1804 16.9605L19.1803 16.9607L19.1322 17.0565L19.1322 17.0566L19.0591 17.204L19.059 17.204C19.0476 17.2271 19.0367 17.2487 19.026 17.2699C19.0127 17.2962 18.9996 17.322 18.986 17.3496L18.986 17.3497L18.9377 17.4475L19.1804 16.9605ZM19.1804 16.9605L19.2051 16.9111C19.2098 16.902 19.214 16.8931 19.2177 16.8854M19.1804 16.9605L19.2177 16.8854M20.0456 18.3027C20.0601 18.3097 20.0745 18.317 20.089 18.3243C20.1038 18.3318 20.1186 18.3393 20.1335 18.3465M20.0456 18.3027L19.9037 18.1478C19.9335 18.1677 19.9676 18.1907 20.0019 18.2138C20.024 18.2287 20.0462 18.2437 20.0674 18.2579C20.0674 18.2579 20.0674 18.258 20.0675 18.258C20.0807 18.2669 20.0936 18.2755 20.1058 18.2837L20.1058 18.2837C20.1198 18.293 20.1338 18.3022 20.1475 18.3112L20.1499 18.3127L20.1335 18.3465M20.0456 18.3027C20.0114 18.286 19.9773 18.2695 19.9431 18.2529C19.9041 18.234 19.8651 18.2151 19.826 18.1961C19.7938 18.1804 19.7616 18.1647 19.7294 18.1491C19.6298 18.1006 19.5303 18.0521 19.4307 18.0034M20.0456 18.3027L19.9037 18.1478C19.8901 18.1387 19.8764 18.1296 19.8628 18.1205C19.8628 18.1205 19.8628 18.1205 19.8628 18.1205C19.8301 18.0987 19.7974 18.0769 19.7647 18.055M20.1335 18.3465C20.1411 18.3502 20.15 18.355 20.1599 18.3603C20.199 18.3814 20.2523 18.4102 20.2956 18.4082L20.2228 18.3595C20.2194 18.3573 20.2156 18.3549 20.2093 18.3512L20.2088 18.3508C20.2033 18.3475 20.1956 18.3429 20.1878 18.3377L20.1499 18.3127L20.1335 18.3465ZM19.4307 18.0034L19.4747 17.9136C19.5714 17.9609 19.6679 18.0079 19.7647 18.055M19.4307 18.0034L19.4747 17.9136M19.4307 18.0034L19.255 17.9172C19.2345 17.9072 19.214 17.8972 19.1935 17.8873C19.1701 17.8759 19.1466 17.8645 19.1232 17.853C19.1088 17.8459 19.0944 17.8387 19.08 17.8315L19.4747 17.9136M19.7647 18.055C19.5804 17.9321 19.3957 17.8091 19.2114 17.6867L19.2114 17.6867C19.1942 17.6753 19.1773 17.6637 19.1609 17.6526L19.1607 17.6525C19.1441 17.6412 19.128 17.6302 19.1118 17.6195L19.0283 17.564L19.084 17.4806L19.1029 17.4528L19.1206 17.4266L19.1206 17.4266L19.1307 17.4114C19.2072 17.2969 19.2835 17.1827 19.3588 17.0681L19.4115 16.9879L19.4907 17.0354C19.4923 17.0362 19.4943 17.0373 19.4967 17.0387L19.4453 17.1245M19.7647 18.055L20.108 17.1716L20.1757 17.0985L20.108 17.1716C20.1302 17.1921 20.1526 17.2132 20.1754 17.2347C20.2234 17.2799 20.273 17.3267 20.3248 17.3718C20.2622 17.3507 20.1997 17.3323 20.1394 17.3145C20.1334 17.3127 20.1275 17.311 20.1216 17.3092C20.0158 17.278 19.9163 17.2478 19.8222 17.2066L19.8222 17.2066C19.7106 17.1577 19.6021 17.1009 19.4962 17.0384L19.4453 17.1245M19.4747 17.9136L19.299 17.8274L19.299 17.8274C19.2775 17.8169 19.2571 17.807 19.2368 17.7971C19.2139 17.786 19.1911 17.7749 19.1673 17.7632L19.1249 17.8496L19.1673 17.7632C19.1533 17.7564 19.1393 17.7493 19.1247 17.742L19.1242 17.7417C19.1096 17.7344 19.0945 17.7268 19.0794 17.7194M19.4747 17.9136L19.0794 17.7194M19.0794 17.7194C19.0577 17.7088 19.0387 17.7003 19.0212 17.6925C18.9901 17.6786 18.9641 17.6669 18.9375 17.6498C18.9027 17.6272 18.8902 17.6082 18.8867 17.5864L19.0794 17.7194ZM19.4453 17.1245C19.5542 17.1888 19.6663 17.2474 19.7821 17.2982L19.4424 17.123L19.4453 17.1245ZM19.4654 16.7432L19.4654 16.7432L19.4582 16.7392L19.4555 16.7377C19.4376 16.7344 19.4189 16.73 19.404 16.7265C19.3969 16.7249 19.3906 16.7234 19.3858 16.7224C19.3641 16.7178 19.3506 16.7164 19.3404 16.7171C19.3392 16.7177 19.3363 16.7191 19.3314 16.7221C19.3261 16.7254 19.3206 16.7291 19.3125 16.7347L19.3121 16.735C19.306 16.7393 19.2979 16.7448 19.2893 16.7502C19.2886 16.7511 19.2874 16.7525 19.286 16.7545C19.2808 16.7614 19.2746 16.7714 19.2675 16.7843C19.2577 16.8023 19.2506 16.8174 19.2433 16.8327C19.2387 16.8424 19.234 16.8523 19.2286 16.863L19.4654 16.7432ZM19.4654 16.7432C19.4899 16.7558 19.5142 16.769 19.5393 16.7826C19.5477 16.7871 19.5562 16.7917 19.5648 16.7964C19.6404 16.8371 19.7136 16.8783 19.7844 16.9229L19.4654 16.7432ZM19.2177 16.8854L19.2179 16.8849M19.2177 16.8854L19.2179 16.8849M19.2179 16.8849C19.2218 16.8768 19.2251 16.8699 19.2285 16.863L19.2179 16.8849ZM18.8956 17.5346C18.8865 17.5585 18.8848 17.574 18.8867 17.5863L18.8956 17.5346ZM18.8956 17.5346C18.9027 17.5161 18.911 17.4999 18.9215 17.4795M18.8956 17.5346L18.9215 17.4795M18.9215 17.4795C18.9264 17.47 18.9317 17.4595 18.9377 17.4475L18.9215 17.4795ZM19.4867 17.0334C19.4862 17.0331 19.4867 17.0333 19.4878 17.0339L19.4867 17.0334Z" fill="url(#paint10_angular_15_11)" stroke="#438267" stroke-width="0.2"/>
<path d="M14.6204 10.0325L14.6298 8.67485L15.3026 8.67949L15.2931 10.0372L14.6204 10.0325Z" fill="url(#paint11_angular_15_11)" stroke="#438267" stroke-width="0.2"/>
<path d="M14.5901 8.67939C14.5902 8.6808 14.5902 8.68233 14.5903 8.68413C14.5929 8.75748 14.5972 8.83032 14.6064 8.90316C14.6194 9.00618 14.643 9.10719 14.6667 9.2082C14.6929 9.32024 14.7192 9.43227 14.7308 9.54701C14.7436 9.6725 14.748 9.79902 14.7455 9.92516M14.5901 8.67939L14.5488 8.9156C14.5429 8.95708 14.5355 8.9984 14.5272 9.03932M14.5901 8.67939L14.5814 8.67874L14.5819 8.67225L14.5901 8.67939ZM14.7455 9.92516L14.6456 9.92193L14.6455 9.9232M14.7455 9.92516L14.6455 9.9232M14.7455 9.92516V9.92955L14.6455 9.92962M14.6455 9.9232L14.6455 9.92319C14.6479 9.80064 14.6437 9.67819 14.6314 9.55715L14.6314 9.55714C14.621 9.45528 14.5982 9.35451 14.5732 9.24752C14.5718 9.24159 14.5704 9.23565 14.569 9.22968C14.5546 9.1682 14.5397 9.1045 14.5272 9.03932M14.6455 9.9232L14.6455 9.92814L14.6455 9.92943C14.6455 9.92953 14.6455 9.92959 14.6455 9.92962M14.5272 9.03932C14.5131 9.10821 14.4964 9.17596 14.4802 9.24135C14.473 9.27065 14.4659 9.29947 14.4592 9.32771M14.5272 9.03932C14.5193 8.99862 14.5124 8.95734 14.5072 8.91567L14.5072 8.91567C14.5069 8.91367 14.5067 8.91167 14.5064 8.90967L14.4497 8.90171L14.5064 8.90966C14.5002 8.85855 14.4962 8.80785 14.4935 8.75769C14.4935 8.75769 14.4935 8.75769 14.4935 8.75769C14.4922 8.73423 14.4912 8.7109 14.4903 8.68771L14.4903 8.68761C14.4903 8.68622 14.4903 8.68495 14.4902 8.68376C14.4902 8.68375 14.4902 8.68374 14.4902 8.68373C14.49 8.67788 14.49 8.67373 14.4899 8.6653L14.4592 9.32771M14.4592 9.32771L14.362 9.30466L14.4592 9.32773C14.4276 9.46069 14.4083 9.59519 14.4017 9.7314L14.4017 9.73141C14.3977 9.81518 14.3973 9.89941 14.3989 9.98452C14.3989 9.98454 14.3989 9.98455 14.3989 9.98457L14.3989 9.98616C14.3997 10.0235 14.4004 10.0604 14.4018 10.0965L14.4018 10.0968L14.4019 10.1051L14.4018 10.1078C14.4077 10.1247 14.4131 10.1428 14.4174 10.1573C14.4195 10.1644 14.4213 10.1706 14.4228 10.1753C14.4296 10.1966 14.4351 10.209 14.4409 10.2176C14.4419 10.2184 14.4445 10.2203 14.4498 10.2232C14.4551 10.2261 14.461 10.2291 14.4696 10.2333L14.4706 10.2338C14.4771 10.237 14.4854 10.241 14.4939 10.2456C14.495 10.2458 14.4968 10.2461 14.4993 10.2464C14.5079 10.2475 14.5197 10.2479 14.5344 10.2477C14.5549 10.2474 14.5717 10.2462 14.5887 10.2449C14.5994 10.2442 14.6102 10.2434 14.6221 10.2428L14.6223 10.2428C14.6327 10.2423 14.6418 10.2418 14.6512 10.2413C14.6594 10.2409 14.6678 10.2404 14.6777 10.2399C14.688 10.2394 14.6968 10.2389 14.7059 10.2384C14.7137 10.238 14.7218 10.2375 14.7316 10.237L14.7317 10.237C14.7618 10.2355 14.7912 10.2339 14.8214 10.2322C14.8274 10.2318 14.8335 10.2315 14.8396 10.2312L14.8397 10.2312L15.0036 10.2224C15.0262 10.2212 15.0484 10.22 15.0705 10.2189C15.1028 10.2172 15.1348 10.2156 15.1672 10.2137L15.1673 10.2137C15.1847 10.2127 15.2024 10.2114 15.2209 10.2101L15.2212 10.2101L14.4592 9.32771ZM14.6455 9.92962V10.0233L14.7391 10.0293C14.8437 10.0361 14.9482 10.0438 15.0532 10.0515C15.0916 10.0543 15.1301 10.0572 15.1687 10.0599L15.1688 10.0599C15.1828 10.061 15.1925 10.0616 15.2018 10.0621C15.2116 10.0627 15.2209 10.0633 15.2345 10.0643L15.3343 10.0717L15.3416 9.97184L15.346 9.91205L15.3504 9.8521C15.3504 9.8521 15.3504 9.8521 15.3504 9.8521C15.3664 9.6315 15.3828 9.41046 15.3994 9.18967C15.4059 9.29711 15.4124 9.40446 15.4187 9.51196L14.6455 9.92962ZM14.6455 9.92962C14.6455 9.92967 14.6455 9.92963 14.6455 9.92955V9.92962ZM15.4229 10.1825L15.4229 10.1825C15.4406 10.1685 15.451 10.148 15.4537 10.1068C15.4558 10.0752 15.4531 10.0463 15.45 10.0118C15.4483 9.99325 15.4464 9.9731 15.4451 9.94999L15.4451 9.94989L15.4392 9.85221L15.4392 9.85216L15.4348 9.77937L15.4304 9.7062C15.4304 9.70619 15.4304 9.70617 15.4304 9.70615C15.4287 9.67692 15.4269 9.64716 15.4251 9.61729C15.4229 9.58211 15.4208 9.54678 15.4187 9.51202L15.4229 10.1825ZM15.4229 10.1825C15.4129 10.1903 15.3987 10.1964 15.3737 10.2001C15.3543 10.203 15.3366 10.2037 15.3142 10.2046C15.3032 10.2051 15.2911 10.2056 15.277 10.2064L15.4229 10.1825ZM14.4732 8.57317C14.4724 8.60895 14.4745 8.61317 14.4744 8.61735C14.4744 8.61957 14.4737 8.62178 14.4717 8.62868C14.4682 8.64046 14.4685 8.65258 14.4688 8.6648C14.4689 8.67075 14.4691 8.67672 14.4688 8.68269C14.4683 8.69264 14.468 8.70259 14.4677 8.71255C14.4673 8.72693 14.4669 8.7413 14.4658 8.75566C14.4623 8.80341 14.4564 8.85429 14.4497 8.90171C14.4349 9.00741 14.4094 9.11089 14.3839 9.21435C14.3765 9.24442 14.369 9.2745 14.3619 9.30463L14.4732 8.57317Z" fill="url(#paint12_angular_15_11)" stroke="#438267" stroke-width="0.2"/>
<path d="M14.9489 23.4603C14.9303 23.7938 14.9118 24.1272 14.8937 24.4606C14.8885 24.5554 14.8832 24.6499 14.8779 24.7444C14.8649 24.9778 14.8519 25.2105 14.841 25.4438L14.841 25.4438C14.8405 25.4546 14.84 25.4653 14.8395 25.476C14.8307 25.6622 14.8221 25.8451 14.825 26.0275L14.725 26.029L14.825 26.0275C14.8275 26.1935 14.8389 26.3567 14.8647 26.5184C14.8765 26.5923 14.8915 26.6657 14.9071 26.7416C14.9087 26.7499 14.9104 26.7582 14.9121 26.7666C14.9248 26.8287 14.9375 26.8923 14.9483 26.957C14.959 26.8923 14.9717 26.8287 14.9844 26.7666C14.986 26.7585 14.9877 26.7504 14.9893 26.7424C15.0049 26.6662 15.0199 26.5926 15.0318 26.5184L15.0318 26.5184C15.0577 26.3567 15.069 26.1935 15.0716 26.0275L14.9489 23.4603ZM14.9489 23.4603C14.9666 23.7772 14.9842 24.0941 15.0014 24.4109C15.0171 24.6994 15.0323 24.9878 15.0468 25.2763L15.0468 25.2763C15.0486 25.3124 15.0505 25.3484 15.0524 25.3842C15.0637 25.601 15.0749 25.8143 15.0716 26.0275L14.9489 23.4603ZM14.9061 27.5445C14.9061 27.5445 14.9061 27.5444 14.9061 27.5443V27.5445Z" fill="url(#paint13_angular_15_11)" stroke="#438267" stroke-width="0.2"/>
<path d="M9.21547 11.74C9.19949 11.7673 9.16529 11.7764 9.13788 11.7604C8.99859 11.6813 8.85686 11.6049 8.7089 11.5429M9.21547 11.74L8.28768 11.0953C8.35624 11.1502 8.42218 11.2088 8.49035 11.2693C8.49542 11.2738 8.5005 11.2783 8.5056 11.2828C8.5551 11.3267 8.60584 11.3715 8.65838 11.4151M9.21547 11.74C9.23149 11.7126 9.2224 11.6771 9.19499 11.6611L9.21547 11.74ZM8.7089 11.5429L8.73627 11.4776C8.86747 11.5789 9.00658 11.6649 9.14365 11.7469L9.14364 11.7469L9.14462 11.7475C9.14429 11.7473 9.14397 11.7471 9.14365 11.7469C9.12348 11.7345 9.11776 11.7089 9.1292 11.6894C9.14076 11.6697 9.16689 11.6623 9.18723 11.6734C9.18729 11.6735 9.18734 11.6735 9.1874 11.6735L9.18724 11.6734C9.04849 11.5947 8.9041 11.5166 8.75218 11.4526C8.75218 11.4526 8.75217 11.4526 8.75217 11.4526C8.75064 11.4519 8.74911 11.4513 8.74758 11.4506C8.71795 11.4382 8.68817 11.4264 8.65838 11.4151M8.7089 11.5429L8.73625 11.4776L8.41491 11.4349C8.5137 11.4687 8.61247 11.5024 8.7089 11.5429ZM8.65838 11.4151C8.59423 11.3907 8.53003 11.3686 8.46721 11.3471C8.4607 11.3449 8.45421 11.3426 8.44773 11.3404C8.36172 11.311 8.27852 11.2826 8.19695 11.25M8.65838 11.4151L8.15985 11.3428M7.2538 10.7173C7.06659 10.5958 6.88029 10.473 6.69369 10.35C6.62637 10.3056 6.559 10.2612 6.49154 10.2168C6.2064 10.0292 5.92135 9.84144 5.63639 9.65351C5.91435 9.7954 6.19224 9.93747 6.47006 10.0799L6.51567 9.99086L6.47006 10.0799C6.55216 10.1219 6.63427 10.1639 6.71634 10.2058C6.91708 10.3084 7.11762 10.4109 7.31725 10.5147C7.34174 10.5274 7.36617 10.54 7.39053 10.5527C7.56514 10.6432 7.73638 10.732 7.90191 10.8314L8.15985 11.3428M7.2538 10.7173L7.1999 10.8004L7.2538 10.7173C7.2538 10.7173 7.2538 10.7173 7.2538 10.7173ZM7.2538 10.7173C7.27352 10.7301 7.29318 10.7428 7.31278 10.7556C7.46769 10.8563 7.61941 10.9549 7.77713 11.0441L7.77714 11.0441C7.91452 11.1217 8.05333 11.1925 8.19695 11.25M8.19695 11.25L8.15985 11.3428M8.19695 11.25C8.19696 11.25 8.19697 11.25 8.19698 11.25L8.15985 11.3428M4.09544 8.75567C4.34288 8.91924 4.59035 9.08279 4.83787 9.24628L4.88829 9.15974C4.79661 9.11301 4.70492 9.06629 4.61323 9.01956C4.44064 8.93162 4.26804 8.84366 4.09544 8.75567Z" fill="url(#paint14_angular_15_11)" stroke="#438267" stroke-width="0.2"/>
<defs>
<radialGradient id="paint0_angular_15_11" cx="0" cy="0" r="1" gradientUnits="userSpaceOnUse" gradientTransform="translate(23.2547 10.2619) rotate(90) scale(1.47556 2.58147)">
<stop stop-color="#66CE95"/>
<stop offset="0.5" stop-color="#22C1C3" stop-opacity="0.49"/>
<stop offset="1" stop-color="#F6E832"/>
</radialGradient>
<radialGradient id="paint1_angular_15_11" cx="0" cy="0" r="1" gradientUnits="userSpaceOnUse" gradientTransform="translate(14.9483 14.9301) rotate(90) scale(14.8468 14.8886)">
<stop stop-color="#66CE95"/>
<stop offset="0.5" stop-color="#22C1C3" stop-opacity="0.49"/>
<stop offset="1" stop-color="#F6E832"/>
</radialGradient>
<radialGradient id="paint2_angular_15_11" cx="0" cy="0" r="1" gradientUnits="userSpaceOnUse" gradientTransform="translate(15 15) rotate(90) scale(15)">
<stop stop-color="#66CE95"/>
<stop offset="0.5" stop-color="#22C1C3" stop-opacity="0.49"/>
<stop offset="1" stop-color="#F6E832"/>
</radialGradient>
<radialGradient id="paint3_angular_15_11" cx="0" cy="0" r="1" gradientUnits="userSpaceOnUse" gradientTransform="translate(14.9484 14.9301) rotate(90) scale(3.3607 3.37018)">
<stop stop-color="#66CE95"/>
<stop offset="0.5" stop-color="#22C1C3" stop-opacity="0.49"/>
<stop offset="1" stop-color="#F6E832"/>
</radialGradient>
<radialGradient id="paint4_angular_15_11" cx="0" cy="0" r="1" gradientUnits="userSpaceOnUse" gradientTransform="translate(15.0002 14.9991) rotate(90) scale(3.51239 3.48087)">
<stop stop-color="#66CE95"/>
<stop offset="0.5" stop-color="#22C1C3" stop-opacity="0.49"/>
<stop offset="1" stop-color="#F6E832"/>
</radialGradient>
<radialGradient id="paint5_angular_15_11" cx="0" cy="0" r="1" gradientUnits="userSpaceOnUse" gradientTransform="translate(14.9615 14.9301) rotate(90) scale(4.8607 4.87439)">
<stop stop-color="#66CE95"/>
<stop offset="0.5" stop-color="#22C1C3" stop-opacity="0.49"/>
<stop offset="1" stop-color="#F6E832"/>
</radialGradient>
<radialGradient id="paint6_angular_15_11" cx="0" cy="0" r="1" gradientUnits="userSpaceOnUse" gradientTransform="translate(15.0132 14.9996) rotate(90) scale(5.01346 4.98515)">
<stop stop-color="#66CE95"/>
<stop offset="0.5" stop-color="#22C1C3" stop-opacity="0.49"/>
<stop offset="1" stop-color="#F6E832"/>
</radialGradient>
<radialGradient id="paint7_angular_15_11" cx="0" cy="0" r="1" gradientUnits="userSpaceOnUse" gradientTransform="translate(10.0609 17.5092) rotate(90) scale(0.76488 0.894639)">
<stop stop-color="#66CE95"/>
<stop offset="0.5" stop-color="#22C1C3" stop-opacity="0.49"/>
<stop offset="1" stop-color="#F6E832"/>
</radialGradient>
<radialGradient id="paint8_angular_15_11" cx="0" cy="0" r="1" gradientUnits="userSpaceOnUse" gradientTransform="translate(9.9792 17.5569) rotate(90) scale(0.869919 1.02719)">
<stop stop-color="#66CE95"/>
<stop offset="0.5" stop-color="#22C1C3" stop-opacity="0.49"/>
<stop offset="1" stop-color="#F6E832"/>
</radialGradient>
<radialGradient id="paint9_angular_15_11" cx="0" cy="0" r="1" gradientUnits="userSpaceOnUse" gradientTransform="translate(19.8359 17.5936) rotate(90) scale(0.765651 0.894615)">
<stop stop-color="#66CE95"/>
<stop offset="0.5" stop-color="#22C1C3" stop-opacity="0.49"/>
<stop offset="1" stop-color="#F6E832"/>
</radialGradient>
<radialGradient id="paint10_angular_15_11" cx="0" cy="0" r="1" gradientUnits="userSpaceOnUse" gradientTransform="translate(19.7871 17.5126) rotate(90) scale(0.895663 1.00107)">
<stop stop-color="#66CE95"/>
<stop offset="0.5" stop-color="#22C1C3" stop-opacity="0.49"/>
<stop offset="1" stop-color="#F6E832"/>
</radialGradient>
<radialGradient id="paint11_angular_15_11" cx="0" cy="0" r="1" gradientUnits="userSpaceOnUse" gradientTransform="translate(14.9615 9.35602) rotate(90) scale(0.781863 0.441815)">
<stop stop-color="#66CE95"/>
<stop offset="0.5" stop-color="#22C1C3" stop-opacity="0.49"/>
<stop offset="1" stop-color="#F6E832"/>
</radialGradient>
<radialGradient id="paint12_angular_15_11" cx="0" cy="0" r="1" gradientUnits="userSpaceOnUse" gradientTransform="translate(14.9262 9.43202) rotate(90) scale(0.915749 0.628169)">
<stop stop-color="#66CE95"/>
<stop offset="0.5" stop-color="#22C1C3" stop-opacity="0.49"/>
<stop offset="1" stop-color="#F6E832"/>
</radialGradient>
<radialGradient id="paint13_angular_15_11" cx="0" cy="0" r="1" gradientUnits="userSpaceOnUse" gradientTransform="translate(14.9483 24.6442) rotate(90) scale(2.95725 0.223871)">
<stop stop-color="#66CE95"/>
<stop offset="0.5" stop-color="#22C1C3" stop-opacity="0.49"/>
<stop offset="1" stop-color="#F6E832"/>
</radialGradient>
<radialGradient id="paint14_angular_15_11" cx="0" cy="0" r="1" gradientUnits="userSpaceOnUse" gradientTransform="translate(6.6594 10.262) rotate(90) scale(1.50629 2.56397)">
<stop stop-color="#66CE95"/>
<stop offset="0.5" stop-color="#22C1C3" stop-opacity="0.49"/>
<stop offset="1" stop-color="#F6E832"/>
</radialGradient>
</defs>
</svg>
